<svg xmlns="http://www.w3.org/2000/svg" width="10000" height="10000">
  <defs>
    <linearGradient id="a" x1=".639%" x2="99.361%" y1="0%" y2="100%">
      <stop offset="0%" stop-color="#FF8F71"/>
      <stop offset="100%" stop-color="#FF3E55"/>
    </linearGradient>
  </defs>
  <path fill="url(#a)" fill-rule="evenodd" d="M6166.099 3728.703v2466.908h-2458.643v-2151.909c0-172.587 140.08-312.667 312.667-312.667h2146.076zm-4092.64-3.662c679.04 0 1229.322 550.283 1229.322 1229.322v5.14c0 679.04-550.282 1229.322-1229.322 1229.322S511.425 5633.442 511.425 4954.403v-5.14c0-679.04 550.283-1229.322 1229.322-1229.322zm1225.664-2891.722v2151.909c0 172.594-140.079 312.667-312.667 312.667H510v-2466.908h2458.643zm2868.151 0v2466.908h-2146.076c-172.587 0-312.667-140.079-312.667-312.667v-2151.909h2458.643z" transform="rotate(22 506.475 7987.014)"/>
</svg>